<mxfile host="65bd71144e">
    <diagram id="U4jHiu-wYpX8ETz81JTm" name="第 1 页">
        <mxGraphModel dx="690" dy="585" grid="0" gridSize="10" guides="1" tooltips="1" connect="1" arrows="1" fold="1" page="0" pageScale="1" pageWidth="827" pageHeight="1169" math="0" shadow="0">
            <root>
                <mxCell id="0"/>
                <mxCell id="1" parent="0"/>
                <mxCell id="KsbObGAl4kquk7lVghbR-11" style="rounded=0;orthogonalLoop=1;jettySize=auto;html=1;entryX=1;entryY=0.5;entryDx=0;entryDy=0;fontSize=14;fontFamily=Noto Serif SC;fontSource=https%3A%2F%2Ffonts.googleapis.com%2Fcss%3Ffamily%3DNoto%2BSerif%2BSC;sketch=1;" parent="1" source="KsbObGAl4kquk7lVghbR-8" target="KsbObGAl4kquk7lVghbR-1" edge="1">
                    <mxGeometry relative="1" as="geometry">
                        <Array as="points">
                            <mxPoint x="790" y="110"/>
                            <mxPoint x="600" y="110"/>
                        </Array>
                    </mxGeometry>
                </mxCell>
                <mxCell id="KsbObGAl4kquk7lVghbR-13" value="1、注册服务信息" style="edgeLabel;html=1;align=center;verticalAlign=middle;resizable=0;points=[];fontSize=14;fontFamily=Noto Serif SC;fontSource=https%3A%2F%2Ffonts.googleapis.com%2Fcss%3Ffamily%3DNoto%2BSerif%2BSC;" parent="KsbObGAl4kquk7lVghbR-11" vertex="1" connectable="0">
                    <mxGeometry x="-0.4656" relative="1" as="geometry">
                        <mxPoint as="offset"/>
                    </mxGeometry>
                </mxCell>
                <mxCell id="KsbObGAl4kquk7lVghbR-12" style="edgeStyle=none;rounded=0;orthogonalLoop=1;jettySize=auto;html=1;fontSize=14;entryX=1;entryY=0.5;entryDx=0;entryDy=0;fontFamily=Noto Serif SC;fontSource=https%3A%2F%2Ffonts.googleapis.com%2Fcss%3Ffamily%3DNoto%2BSerif%2BSC;sketch=1;" parent="1" edge="1">
                    <mxGeometry relative="1" as="geometry">
                        <mxPoint x="580" y="110" as="targetPoint"/>
                        <mxPoint x="950" y="259" as="sourcePoint"/>
                        <Array as="points">
                            <mxPoint x="950" y="180"/>
                            <mxPoint x="950" y="110"/>
                        </Array>
                    </mxGeometry>
                </mxCell>
                <mxCell id="KsbObGAl4kquk7lVghbR-14" value="心跳续约，每30秒1次" style="edgeLabel;html=1;align=center;verticalAlign=middle;resizable=0;points=[];fontSize=14;fontFamily=Noto Serif SC;fontSource=https%3A%2F%2Ffonts.googleapis.com%2Fcss%3Ffamily%3DNoto%2BSerif%2BSC;" parent="KsbObGAl4kquk7lVghbR-12" vertex="1" connectable="0">
                    <mxGeometry x="-0.573" y="-1" relative="1" as="geometry">
                        <mxPoint as="offset"/>
                    </mxGeometry>
                </mxCell>
                <mxCell id="KsbObGAl4kquk7lVghbR-8" value="" style="rounded=0;whiteSpace=wrap;html=1;dashed=1;fontSize=14;fontFamily=Noto Serif SC;fontSource=https%3A%2F%2Ffonts.googleapis.com%2Fcss%3Ffamily%3DNoto%2BSerif%2BSC;sketch=1;" parent="1" vertex="1">
                    <mxGeometry x="590" y="260" width="400" height="290" as="geometry"/>
                </mxCell>
                <mxCell id="KsbObGAl4kquk7lVghbR-7" value="" style="rounded=0;whiteSpace=wrap;html=1;dashed=1;fontSize=14;fontFamily=Noto Serif SC;fontSource=https%3A%2F%2Ffonts.googleapis.com%2Fcss%3Ffamily%3DNoto%2BSerif%2BSC;sketch=1;" parent="1" vertex="1">
                    <mxGeometry x="130" y="260" width="270" height="290" as="geometry"/>
                </mxCell>
                <mxCell id="KsbObGAl4kquk7lVghbR-9" style="edgeStyle=orthogonalEdgeStyle;rounded=0;orthogonalLoop=1;jettySize=auto;html=1;fontSize=14;fontFamily=Noto Serif SC;fontSource=https%3A%2F%2Ffonts.googleapis.com%2Fcss%3Ffamily%3DNoto%2BSerif%2BSC;sketch=1;" parent="1" source="KsbObGAl4kquk7lVghbR-1" target="KsbObGAl4kquk7lVghbR-7" edge="1">
                    <mxGeometry relative="1" as="geometry"/>
                </mxCell>
                <mxCell id="KsbObGAl4kquk7lVghbR-10" value="&lt;font style=&quot;font-size: 14px;&quot;&gt;2、拉取服务&lt;/font&gt;" style="edgeLabel;html=1;align=center;verticalAlign=middle;resizable=0;points=[];fontSize=14;fontFamily=Noto Serif SC;fontSource=https%3A%2F%2Ffonts.googleapis.com%2Fcss%3Ffamily%3DNoto%2BSerif%2BSC;" parent="KsbObGAl4kquk7lVghbR-9" vertex="1" connectable="0">
                    <mxGeometry x="-0.1351" y="3" relative="1" as="geometry">
                        <mxPoint as="offset"/>
                    </mxGeometry>
                </mxCell>
                <mxCell id="KsbObGAl4kquk7lVghbR-1" value="eureka-server&lt;br style=&quot;font-size: 14px;&quot;&gt;注册中心" style="rounded=1;whiteSpace=wrap;html=1;fillColor=#e1d5e7;strokeColor=#9673a6;fontSize=14;fontFamily=Noto Serif SC;fontSource=https%3A%2F%2Ffonts.googleapis.com%2Fcss%3Ffamily%3DNoto%2BSerif%2BSC;sketch=1;" parent="1" vertex="1">
                    <mxGeometry x="460" y="80" width="120" height="60" as="geometry"/>
                </mxCell>
                <mxCell id="KsbObGAl4kquk7lVghbR-17" style="edgeStyle=none;rounded=0;orthogonalLoop=1;jettySize=auto;html=1;fontSize=14;entryX=0;entryY=0.5;entryDx=0;entryDy=0;fontFamily=Noto Serif SC;fontSource=https%3A%2F%2Ffonts.googleapis.com%2Fcss%3Ffamily%3DNoto%2BSerif%2BSC;sketch=1;" parent="1" source="KsbObGAl4kquk7lVghbR-3" target="KsbObGAl4kquk7lVghbR-4" edge="1">
                    <mxGeometry relative="1" as="geometry">
                        <Array as="points"/>
                    </mxGeometry>
                </mxCell>
                <mxCell id="KsbObGAl4kquk7lVghbR-3" value="order-service&lt;br style=&quot;font-size: 14px;&quot;&gt;8080" style="rounded=1;whiteSpace=wrap;html=1;fillColor=#d5e8d4;strokeColor=#82b366;fontSize=14;fontFamily=Noto Serif SC;fontSource=https%3A%2F%2Ffonts.googleapis.com%2Fcss%3Ffamily%3DNoto%2BSerif%2BSC;sketch=1;" parent="1" vertex="1">
                    <mxGeometry x="190" y="310" width="120" height="60" as="geometry"/>
                </mxCell>
                <mxCell id="KsbObGAl4kquk7lVghbR-4" value="user-service&lt;br style=&quot;font-size: 14px;&quot;&gt;8081" style="rounded=1;whiteSpace=wrap;html=1;fillColor=#dae8fc;strokeColor=#6c8ebf;fontSize=14;fontFamily=Noto Serif SC;fontSource=https%3A%2F%2Ffonts.googleapis.com%2Fcss%3Ffamily%3DNoto%2BSerif%2BSC;sketch=1;" parent="1" vertex="1">
                    <mxGeometry x="740" y="310" width="120" height="60" as="geometry"/>
                </mxCell>
                <mxCell id="KsbObGAl4kquk7lVghbR-5" value="user-service&lt;br style=&quot;font-size: 14px;&quot;&gt;8082" style="rounded=1;whiteSpace=wrap;html=1;fillColor=#dae8fc;strokeColor=#6c8ebf;fontSize=14;fontFamily=Noto Serif SC;fontSource=https%3A%2F%2Ffonts.googleapis.com%2Fcss%3Ffamily%3DNoto%2BSerif%2BSC;sketch=1;" parent="1" vertex="1">
                    <mxGeometry x="630" y="440" width="120" height="60" as="geometry"/>
                </mxCell>
                <mxCell id="KsbObGAl4kquk7lVghbR-6" value="user-service&lt;br style=&quot;font-size: 14px;&quot;&gt;8083" style="rounded=1;whiteSpace=wrap;html=1;fillColor=#dae8fc;strokeColor=#6c8ebf;fontSize=14;fontFamily=Noto Serif SC;fontSource=https%3A%2F%2Ffonts.googleapis.com%2Fcss%3Ffamily%3DNoto%2BSerif%2BSC;sketch=1;" parent="1" vertex="1">
                    <mxGeometry x="860" y="440" width="120" height="60" as="geometry"/>
                </mxCell>
                <mxCell id="KsbObGAl4kquk7lVghbR-15" value="eureka-client" style="text;html=1;strokeColor=none;fillColor=none;align=center;verticalAlign=middle;whiteSpace=wrap;rounded=0;dashed=1;fontSize=14;fontFamily=Noto Serif SC;fontSource=https%3A%2F%2Ffonts.googleapis.com%2Fcss%3Ffamily%3DNoto%2BSerif%2BSC;sketch=1;" parent="1" vertex="1">
                    <mxGeometry x="440" y="570" width="130" height="20" as="geometry"/>
                </mxCell>
                <mxCell id="KsbObGAl4kquk7lVghbR-18" value="&lt;div style=&quot;text-align: left; font-size: 14px;&quot;&gt;&lt;span style=&quot;font-size: 14px;&quot;&gt;user-servie&lt;/span&gt;&lt;/div&gt;&lt;div style=&quot;text-align: left; font-size: 14px;&quot;&gt;&lt;span style=&quot;font-size: 14px;&quot;&gt;localhost:8081&lt;/span&gt;&lt;/div&gt;&lt;div style=&quot;text-align: left; font-size: 14px;&quot;&gt;&lt;span style=&quot;font-size: 14px;&quot;&gt;localhost:8082&lt;/span&gt;&lt;/div&gt;&lt;div style=&quot;text-align: left; font-size: 14px;&quot;&gt;&lt;span style=&quot;font-size: 14px;&quot;&gt;localhost:8083&lt;/span&gt;&lt;/div&gt;" style="text;html=1;strokeColor=none;fillColor=none;align=center;verticalAlign=middle;whiteSpace=wrap;rounded=0;dashed=1;fontSize=14;fontFamily=Noto Serif SC;fontSource=https%3A%2F%2Ffonts.googleapis.com%2Fcss%3Ffamily%3DNoto%2BSerif%2BSC;" parent="1" vertex="1">
                    <mxGeometry x="140" y="430" width="120" height="20" as="geometry"/>
                </mxCell>
                <mxCell id="KsbObGAl4kquk7lVghbR-19" style="edgeStyle=none;rounded=0;orthogonalLoop=1;jettySize=auto;html=1;exitX=0.5;exitY=1;exitDx=0;exitDy=0;fontSize=14;fontFamily=Noto Serif SC;fontSource=https%3A%2F%2Ffonts.googleapis.com%2Fcss%3Ffamily%3DNoto%2BSerif%2BSC;" parent="1" source="KsbObGAl4kquk7lVghbR-18" target="KsbObGAl4kquk7lVghbR-18" edge="1">
                    <mxGeometry relative="1" as="geometry"/>
                </mxCell>
                <mxCell id="KsbObGAl4kquk7lVghbR-20" value="3、负载均衡" style="text;html=1;strokeColor=none;fillColor=none;align=center;verticalAlign=middle;whiteSpace=wrap;rounded=0;dashed=1;fontSize=14;fontFamily=Noto Serif SC;fontSource=https%3A%2F%2Ffonts.googleapis.com%2Fcss%3Ffamily%3DNoto%2BSerif%2BSC;" parent="1" vertex="1">
                    <mxGeometry x="290" y="430" width="90" height="20" as="geometry"/>
                </mxCell>
                <mxCell id="KsbObGAl4kquk7lVghbR-23" value="服务消费者" style="text;html=1;strokeColor=none;fillColor=none;align=center;verticalAlign=middle;whiteSpace=wrap;rounded=0;dashed=1;fontSize=14;fontFamily=Noto Serif SC;fontSource=https%3A%2F%2Ffonts.googleapis.com%2Fcss%3Ffamily%3DNoto%2BSerif%2BSC;" parent="1" vertex="1">
                    <mxGeometry x="200" y="535" width="110" height="10" as="geometry"/>
                </mxCell>
                <mxCell id="KsbObGAl4kquk7lVghbR-24" value="服务提供者" style="text;html=1;strokeColor=none;fillColor=none;align=center;verticalAlign=middle;whiteSpace=wrap;rounded=0;dashed=1;fontSize=14;fontFamily=Noto Serif SC;fontSource=https%3A%2F%2Ffonts.googleapis.com%2Fcss%3Ffamily%3DNoto%2BSerif%2BSC;" parent="1" vertex="1">
                    <mxGeometry x="770" y="530" width="90" height="20" as="geometry"/>
                </mxCell>
            </root>
        </mxGraphModel>
    </diagram>
</mxfile>